<mxfile host="app.diagrams.net" agent="Mozilla/5.0 (Windows NT 10.0; Win64; x64) AppleWebKit/537.36 (KHTML, like Gecko) Chrome/131.0.0.0 Safari/537.36" version="25.0.3">
  <diagram id="C5RBs43oDa-KdzZeNtuy" name="Page-1">
    <mxGraphModel dx="3695" dy="1512" grid="1" gridSize="10" guides="1" tooltips="1" connect="1" arrows="1" fold="1" page="1" pageScale="1" pageWidth="827" pageHeight="1169" math="0" shadow="0">
      <root>
        <mxCell id="WIyWlLk6GJQsqaUBKTNV-0" />
        <mxCell id="WIyWlLk6GJQsqaUBKTNV-1" parent="WIyWlLk6GJQsqaUBKTNV-0" />
        <mxCell id="_6YNWJkrC3flyPGvjGJM-37" style="edgeStyle=orthogonalEdgeStyle;rounded=0;orthogonalLoop=1;jettySize=auto;html=1;entryX=1;entryY=0.5;entryDx=0;entryDy=0;" edge="1" parent="WIyWlLk6GJQsqaUBKTNV-1" source="_6YNWJkrC3flyPGvjGJM-10" target="_6YNWJkrC3flyPGvjGJM-36">
          <mxGeometry relative="1" as="geometry" />
        </mxCell>
        <mxCell id="_6YNWJkrC3flyPGvjGJM-43" style="edgeStyle=orthogonalEdgeStyle;rounded=0;orthogonalLoop=1;jettySize=auto;html=1;entryX=0.5;entryY=0;entryDx=0;entryDy=0;" edge="1" parent="WIyWlLk6GJQsqaUBKTNV-1" source="_6YNWJkrC3flyPGvjGJM-10" target="_6YNWJkrC3flyPGvjGJM-42">
          <mxGeometry relative="1" as="geometry" />
        </mxCell>
        <mxCell id="_6YNWJkrC3flyPGvjGJM-10" value="" style="rhombus;whiteSpace=wrap;html=1;fillColor=#b0e3e6;strokeColor=#0e8088;" vertex="1" parent="WIyWlLk6GJQsqaUBKTNV-1">
          <mxGeometry x="205" y="400" width="50" height="50" as="geometry" />
        </mxCell>
        <mxCell id="_6YNWJkrC3flyPGvjGJM-34" style="edgeStyle=orthogonalEdgeStyle;rounded=0;orthogonalLoop=1;jettySize=auto;html=1;entryX=0.5;entryY=0;entryDx=0;entryDy=0;" edge="1" parent="WIyWlLk6GJQsqaUBKTNV-1" source="_6YNWJkrC3flyPGvjGJM-16" target="_6YNWJkrC3flyPGvjGJM-33">
          <mxGeometry relative="1" as="geometry" />
        </mxCell>
        <mxCell id="_6YNWJkrC3flyPGvjGJM-16" value="DashChat 2" style="rounded=1;whiteSpace=wrap;html=1;fillColor=#bac8d3;strokeColor=#23445d;" vertex="1" parent="WIyWlLk6GJQsqaUBKTNV-1">
          <mxGeometry x="170" y="90" width="120" height="60" as="geometry" />
        </mxCell>
        <mxCell id="_6YNWJkrC3flyPGvjGJM-23" style="edgeStyle=orthogonalEdgeStyle;rounded=0;orthogonalLoop=1;jettySize=auto;html=1;exitX=0.5;exitY=1;exitDx=0;exitDy=0;entryX=0.5;entryY=0;entryDx=0;entryDy=0;" edge="1" parent="WIyWlLk6GJQsqaUBKTNV-1" source="_6YNWJkrC3flyPGvjGJM-17" target="_6YNWJkrC3flyPGvjGJM-10">
          <mxGeometry relative="1" as="geometry" />
        </mxCell>
        <mxCell id="_6YNWJkrC3flyPGvjGJM-17" value="User" style="rounded=1;whiteSpace=wrap;html=1;fillColor=#b1ddf0;strokeColor=#10739e;" vertex="1" parent="WIyWlLk6GJQsqaUBKTNV-1">
          <mxGeometry x="170" y="290" width="120" height="60" as="geometry" />
        </mxCell>
        <mxCell id="_6YNWJkrC3flyPGvjGJM-21" style="edgeStyle=orthogonalEdgeStyle;rounded=0;orthogonalLoop=1;jettySize=auto;html=1;entryX=0.5;entryY=0;entryDx=0;entryDy=0;" edge="1" parent="WIyWlLk6GJQsqaUBKTNV-1" source="_6YNWJkrC3flyPGvjGJM-20" target="_6YNWJkrC3flyPGvjGJM-16">
          <mxGeometry relative="1" as="geometry" />
        </mxCell>
        <mxCell id="_6YNWJkrC3flyPGvjGJM-20" value="" style="ellipse;whiteSpace=wrap;html=1;aspect=fixed;fillColor=#f8cecc;strokeColor=#b85450;" vertex="1" parent="WIyWlLk6GJQsqaUBKTNV-1">
          <mxGeometry x="220" y="30" width="20" height="20" as="geometry" />
        </mxCell>
        <mxCell id="_6YNWJkrC3flyPGvjGJM-46" style="edgeStyle=orthogonalEdgeStyle;rounded=0;orthogonalLoop=1;jettySize=auto;html=1;" edge="1" parent="WIyWlLk6GJQsqaUBKTNV-1" source="_6YNWJkrC3flyPGvjGJM-24" target="_6YNWJkrC3flyPGvjGJM-45">
          <mxGeometry relative="1" as="geometry" />
        </mxCell>
        <mxCell id="_6YNWJkrC3flyPGvjGJM-24" value="File Picker" style="rounded=1;whiteSpace=wrap;html=1;fillColor=#bac8d3;strokeColor=#23445d;" vertex="1" parent="WIyWlLk6GJQsqaUBKTNV-1">
          <mxGeometry x="170" y="600" width="120" height="60" as="geometry" />
        </mxCell>
        <mxCell id="_6YNWJkrC3flyPGvjGJM-41" style="edgeStyle=orthogonalEdgeStyle;rounded=0;orthogonalLoop=1;jettySize=auto;html=1;entryX=0;entryY=0.5;entryDx=0;entryDy=0;exitX=0.5;exitY=0;exitDx=0;exitDy=0;" edge="1" parent="WIyWlLk6GJQsqaUBKTNV-1" source="_6YNWJkrC3flyPGvjGJM-26" target="_6YNWJkrC3flyPGvjGJM-39">
          <mxGeometry relative="1" as="geometry" />
        </mxCell>
        <mxCell id="_6YNWJkrC3flyPGvjGJM-26" value="DashChat 2" style="rounded=1;whiteSpace=wrap;html=1;fillColor=#bac8d3;strokeColor=#23445d;" vertex="1" parent="WIyWlLk6GJQsqaUBKTNV-1">
          <mxGeometry x="-210" y="340" width="120" height="60" as="geometry" />
        </mxCell>
        <mxCell id="_6YNWJkrC3flyPGvjGJM-35" style="edgeStyle=orthogonalEdgeStyle;rounded=0;orthogonalLoop=1;jettySize=auto;html=1;" edge="1" parent="WIyWlLk6GJQsqaUBKTNV-1" source="_6YNWJkrC3flyPGvjGJM-33" target="_6YNWJkrC3flyPGvjGJM-17">
          <mxGeometry relative="1" as="geometry" />
        </mxCell>
        <mxCell id="_6YNWJkrC3flyPGvjGJM-33" value="&lt;font style=&quot;font-size: 11px;&quot;&gt;Willkommensnachricht&lt;/font&gt;" style="rounded=1;whiteSpace=wrap;html=1;fillColor=#b0e3e6;strokeColor=#0e8088;" vertex="1" parent="WIyWlLk6GJQsqaUBKTNV-1">
          <mxGeometry x="170" y="190" width="120" height="60" as="geometry" />
        </mxCell>
        <mxCell id="_6YNWJkrC3flyPGvjGJM-66" style="edgeStyle=orthogonalEdgeStyle;rounded=0;orthogonalLoop=1;jettySize=auto;html=1;entryX=0.5;entryY=1;entryDx=0;entryDy=0;" edge="1" parent="WIyWlLk6GJQsqaUBKTNV-1" source="_6YNWJkrC3flyPGvjGJM-36" target="_6YNWJkrC3flyPGvjGJM-26">
          <mxGeometry relative="1" as="geometry" />
        </mxCell>
        <mxCell id="_6YNWJkrC3flyPGvjGJM-36" value="&lt;font&gt;stellt Frage&lt;/font&gt;" style="rounded=1;whiteSpace=wrap;html=1;fillColor=#b0e3e6;strokeColor=#0e8088;" vertex="1" parent="WIyWlLk6GJQsqaUBKTNV-1">
          <mxGeometry x="-50" y="395" width="120" height="60" as="geometry" />
        </mxCell>
        <mxCell id="_6YNWJkrC3flyPGvjGJM-40" style="edgeStyle=orthogonalEdgeStyle;rounded=0;orthogonalLoop=1;jettySize=auto;html=1;entryX=0;entryY=0.5;entryDx=0;entryDy=0;" edge="1" parent="WIyWlLk6GJQsqaUBKTNV-1" source="_6YNWJkrC3flyPGvjGJM-39" target="_6YNWJkrC3flyPGvjGJM-17">
          <mxGeometry relative="1" as="geometry" />
        </mxCell>
        <mxCell id="_6YNWJkrC3flyPGvjGJM-39" value="&lt;font&gt;gibt Antwort&lt;/font&gt;" style="rounded=1;whiteSpace=wrap;html=1;fillColor=#b0e3e6;strokeColor=#0e8088;" vertex="1" parent="WIyWlLk6GJQsqaUBKTNV-1">
          <mxGeometry x="-50" y="290" width="120" height="60" as="geometry" />
        </mxCell>
        <mxCell id="_6YNWJkrC3flyPGvjGJM-44" style="edgeStyle=orthogonalEdgeStyle;rounded=0;orthogonalLoop=1;jettySize=auto;html=1;entryX=0.5;entryY=0;entryDx=0;entryDy=0;" edge="1" parent="WIyWlLk6GJQsqaUBKTNV-1" source="_6YNWJkrC3flyPGvjGJM-42" target="_6YNWJkrC3flyPGvjGJM-24">
          <mxGeometry relative="1" as="geometry" />
        </mxCell>
        <mxCell id="_6YNWJkrC3flyPGvjGJM-42" value="&lt;font&gt;drÃ¼ckt&lt;br&gt;Upload Button&lt;/font&gt;" style="rounded=1;whiteSpace=wrap;html=1;fillColor=#b0e3e6;strokeColor=#0e8088;" vertex="1" parent="WIyWlLk6GJQsqaUBKTNV-1">
          <mxGeometry x="170" y="500" width="120" height="60" as="geometry" />
        </mxCell>
        <mxCell id="_6YNWJkrC3flyPGvjGJM-50" style="edgeStyle=orthogonalEdgeStyle;rounded=0;orthogonalLoop=1;jettySize=auto;html=1;" edge="1" parent="WIyWlLk6GJQsqaUBKTNV-1" source="_6YNWJkrC3flyPGvjGJM-45" target="_6YNWJkrC3flyPGvjGJM-48">
          <mxGeometry relative="1" as="geometry" />
        </mxCell>
        <mxCell id="_6YNWJkrC3flyPGvjGJM-45" value="&lt;font&gt;sucht PDF&lt;/font&gt;" style="rounded=1;whiteSpace=wrap;html=1;fillColor=#b0e3e6;strokeColor=#0e8088;" vertex="1" parent="WIyWlLk6GJQsqaUBKTNV-1">
          <mxGeometry x="170" y="700" width="120" height="60" as="geometry" />
        </mxCell>
        <mxCell id="_6YNWJkrC3flyPGvjGJM-60" style="edgeStyle=orthogonalEdgeStyle;rounded=0;orthogonalLoop=1;jettySize=auto;html=1;entryX=0.5;entryY=0;entryDx=0;entryDy=0;" edge="1" parent="WIyWlLk6GJQsqaUBKTNV-1" source="_6YNWJkrC3flyPGvjGJM-48" target="_6YNWJkrC3flyPGvjGJM-58">
          <mxGeometry relative="1" as="geometry" />
        </mxCell>
        <mxCell id="_6YNWJkrC3flyPGvjGJM-48" value="Syncfusion PDF" style="rounded=1;whiteSpace=wrap;html=1;fillColor=#bac8d3;strokeColor=#23445d;" vertex="1" parent="WIyWlLk6GJQsqaUBKTNV-1">
          <mxGeometry x="170" y="800" width="120" height="60" as="geometry" />
        </mxCell>
        <mxCell id="_6YNWJkrC3flyPGvjGJM-54" style="edgeStyle=orthogonalEdgeStyle;rounded=0;orthogonalLoop=1;jettySize=auto;html=1;entryX=0.5;entryY=0;entryDx=0;entryDy=0;" edge="1" parent="WIyWlLk6GJQsqaUBKTNV-1" source="_6YNWJkrC3flyPGvjGJM-51" target="_6YNWJkrC3flyPGvjGJM-53">
          <mxGeometry relative="1" as="geometry" />
        </mxCell>
        <mxCell id="_6YNWJkrC3flyPGvjGJM-51" value="&lt;font&gt;extrahiert Texte&lt;br&gt;&lt;/font&gt;" style="rounded=1;whiteSpace=wrap;html=1;fillColor=#b0e3e6;strokeColor=#0e8088;" vertex="1" parent="WIyWlLk6GJQsqaUBKTNV-1">
          <mxGeometry x="170" y="1010" width="120" height="60" as="geometry" />
        </mxCell>
        <mxCell id="_6YNWJkrC3flyPGvjGJM-56" style="edgeStyle=orthogonalEdgeStyle;rounded=0;orthogonalLoop=1;jettySize=auto;html=1;" edge="1" parent="WIyWlLk6GJQsqaUBKTNV-1" source="_6YNWJkrC3flyPGvjGJM-53" target="_6YNWJkrC3flyPGvjGJM-55">
          <mxGeometry relative="1" as="geometry" />
        </mxCell>
        <mxCell id="_6YNWJkrC3flyPGvjGJM-53" value="Gemini&lt;br&gt;&lt;font style=&quot;font-size: 9px;&quot;&gt;(KI-API)&lt;/font&gt;" style="rounded=1;whiteSpace=wrap;html=1;fillColor=#bac8d3;strokeColor=#23445d;" vertex="1" parent="WIyWlLk6GJQsqaUBKTNV-1">
          <mxGeometry x="170" y="1109" width="120" height="60" as="geometry" />
        </mxCell>
        <mxCell id="_6YNWJkrC3flyPGvjGJM-68" style="edgeStyle=orthogonalEdgeStyle;rounded=0;orthogonalLoop=1;jettySize=auto;html=1;entryX=1;entryY=0.5;entryDx=0;entryDy=0;exitX=1;exitY=0.5;exitDx=0;exitDy=0;" edge="1" parent="WIyWlLk6GJQsqaUBKTNV-1" source="_6YNWJkrC3flyPGvjGJM-55" target="_6YNWJkrC3flyPGvjGJM-58">
          <mxGeometry relative="1" as="geometry">
            <mxPoint x="330" y="1200" as="sourcePoint" />
            <Array as="points">
              <mxPoint x="360" y="1240" />
              <mxPoint x="360" y="925" />
            </Array>
          </mxGeometry>
        </mxCell>
        <mxCell id="_6YNWJkrC3flyPGvjGJM-55" value="&lt;font&gt;Analyse und Zusammenfassung&lt;br&gt;&lt;/font&gt;" style="rounded=1;whiteSpace=wrap;html=1;fillColor=#b0e3e6;strokeColor=#0e8088;" vertex="1" parent="WIyWlLk6GJQsqaUBKTNV-1">
          <mxGeometry x="170" y="1210" width="120" height="60" as="geometry" />
        </mxCell>
        <mxCell id="_6YNWJkrC3flyPGvjGJM-61" style="edgeStyle=orthogonalEdgeStyle;rounded=0;orthogonalLoop=1;jettySize=auto;html=1;entryX=0.5;entryY=0;entryDx=0;entryDy=0;" edge="1" parent="WIyWlLk6GJQsqaUBKTNV-1" source="_6YNWJkrC3flyPGvjGJM-58" target="_6YNWJkrC3flyPGvjGJM-51">
          <mxGeometry relative="1" as="geometry" />
        </mxCell>
        <mxCell id="_6YNWJkrC3flyPGvjGJM-65" style="edgeStyle=orthogonalEdgeStyle;rounded=0;orthogonalLoop=1;jettySize=auto;html=1;" edge="1" parent="WIyWlLk6GJQsqaUBKTNV-1" source="_6YNWJkrC3flyPGvjGJM-58" target="_6YNWJkrC3flyPGvjGJM-64">
          <mxGeometry relative="1" as="geometry" />
        </mxCell>
        <mxCell id="_6YNWJkrC3flyPGvjGJM-58" value="" style="rhombus;whiteSpace=wrap;html=1;fillColor=#b0e3e6;strokeColor=#0e8088;" vertex="1" parent="WIyWlLk6GJQsqaUBKTNV-1">
          <mxGeometry x="205" y="900" width="50" height="50" as="geometry" />
        </mxCell>
        <mxCell id="_6YNWJkrC3flyPGvjGJM-72" style="edgeStyle=orthogonalEdgeStyle;rounded=0;orthogonalLoop=1;jettySize=auto;html=1;" edge="1" parent="WIyWlLk6GJQsqaUBKTNV-1" source="_6YNWJkrC3flyPGvjGJM-64" target="_6YNWJkrC3flyPGvjGJM-71">
          <mxGeometry relative="1" as="geometry" />
        </mxCell>
        <mxCell id="_6YNWJkrC3flyPGvjGJM-64" value="&lt;font&gt;erstellt PDF&lt;br&gt;&lt;/font&gt;" style="rounded=1;whiteSpace=wrap;html=1;fillColor=#b0e3e6;strokeColor=#0e8088;" vertex="1" parent="WIyWlLk6GJQsqaUBKTNV-1">
          <mxGeometry x="-50" y="895" width="120" height="60" as="geometry" />
        </mxCell>
        <mxCell id="_6YNWJkrC3flyPGvjGJM-67" value="keine Zusammenfassung vorhanden" style="text;html=1;align=center;verticalAlign=middle;whiteSpace=wrap;rounded=0;" vertex="1" parent="WIyWlLk6GJQsqaUBKTNV-1">
          <mxGeometry x="230" y="950" width="120" height="50" as="geometry" />
        </mxCell>
        <mxCell id="_6YNWJkrC3flyPGvjGJM-69" value="Zusammenfassung vorhanden" style="text;html=1;align=center;verticalAlign=middle;whiteSpace=wrap;rounded=0;" vertex="1" parent="WIyWlLk6GJQsqaUBKTNV-1">
          <mxGeometry x="85" y="880" width="120" height="50" as="geometry" />
        </mxCell>
        <mxCell id="_6YNWJkrC3flyPGvjGJM-74" style="edgeStyle=orthogonalEdgeStyle;rounded=0;orthogonalLoop=1;jettySize=auto;html=1;" edge="1" parent="WIyWlLk6GJQsqaUBKTNV-1" source="_6YNWJkrC3flyPGvjGJM-71" target="_6YNWJkrC3flyPGvjGJM-73">
          <mxGeometry relative="1" as="geometry" />
        </mxCell>
        <mxCell id="_6YNWJkrC3flyPGvjGJM-71" value="Path Provider" style="rounded=1;whiteSpace=wrap;html=1;fillColor=#bac8d3;strokeColor=#23445d;" vertex="1" parent="WIyWlLk6GJQsqaUBKTNV-1">
          <mxGeometry x="-50" y="1010" width="120" height="60" as="geometry" />
        </mxCell>
        <mxCell id="_6YNWJkrC3flyPGvjGJM-77" style="edgeStyle=orthogonalEdgeStyle;rounded=0;orthogonalLoop=1;jettySize=auto;html=1;entryX=0;entryY=0.5;entryDx=0;entryDy=0;" edge="1" parent="WIyWlLk6GJQsqaUBKTNV-1" source="_6YNWJkrC3flyPGvjGJM-73" target="_6YNWJkrC3flyPGvjGJM-76">
          <mxGeometry relative="1" as="geometry" />
        </mxCell>
        <mxCell id="_6YNWJkrC3flyPGvjGJM-73" value="&lt;font&gt;speichert PDF&lt;br&gt;&lt;/font&gt;" style="rounded=1;whiteSpace=wrap;html=1;fillColor=#b0e3e6;strokeColor=#0e8088;" vertex="1" parent="WIyWlLk6GJQsqaUBKTNV-1">
          <mxGeometry x="-50" y="1110" width="120" height="60" as="geometry" />
        </mxCell>
        <mxCell id="_6YNWJkrC3flyPGvjGJM-75" value="" style="ellipse;whiteSpace=wrap;html=1;aspect=fixed;fillColor=#f8cecc;strokeColor=#b85450;direction=south;" vertex="1" parent="WIyWlLk6GJQsqaUBKTNV-1">
          <mxGeometry y="1230" width="20" height="20" as="geometry" />
        </mxCell>
        <mxCell id="_6YNWJkrC3flyPGvjGJM-76" value="" style="ellipse;whiteSpace=wrap;html=1;aspect=fixed;fillColor=none;direction=south;strokeColor=#AE4132;" vertex="1" parent="WIyWlLk6GJQsqaUBKTNV-1">
          <mxGeometry x="-5" y="1225" width="30" height="30" as="geometry" />
        </mxCell>
      </root>
    </mxGraphModel>
  </diagram>
</mxfile>
